IKResults
version=1
nRows=11
nColumns=40
inDegrees=yes

Units are S.I. units (second, meters, Newtons, ...)
Angles are in degrees.

endheader
time	pelvis_tilt	pelvis_list	pelvis_rotation	pelvis_tx	pelvis_ty	pelvis_tz	hip_flexion_r	hip_adduction_r	hip_rotation_r	knee_angle_r	knee_angle_r_beta	ankle_angle_r	subtalar_angle_r	mtp_angle_r	hip_flexion_l	hip_adduction_l	hip_rotation_l	knee_angle_l	knee_angle_l_beta	ankle_angle_l	subtalar_angle_l	mtp_angle_l	lumbar_extension	lumbar_bending	lumbar_rotation	arm_flex_r	arm_add_r	arm_rot_r	elbow_flex_r	pro_sup_r	wrist_flex_r	wrist_dev_r	arm_flex_l	arm_add_l	arm_rot_l	elbow_flex_l	pro_sup_l	wrist_flex_l	wrist_dev_l
      0.39000000	     17.84155210	     -5.22315977	      6.77430136	     -0.57941966	      0.94787589	      1.00425991	     -8.02603295	      6.45507422	    -18.29205425	    -16.66457498	     -0.29085170	      2.81031550	     -2.65257370	     -3.19063263	    -18.62687531	      9.19193776	      2.14222388	    -53.10186841	     -0.92680244	     -5.44824085	     18.66708748	      8.57363316	    -22.33639970	      6.88849863	     -2.98877128	     -6.82946684	    -10.49084143	     -1.58679611	     26.69271814	     89.95437384	      0.00000000	      0.00000000	      6.55174499	      9.17605576	      4.80843865	     41.36816913	     89.95437384	      0.00000000	      0.00000000
      0.40000000	     17.96772125	     -5.11383401	      6.73543551	     -0.56959666	      0.94864911	      1.00572168	     -9.03862685	      6.56897498	    -18.00343747	    -16.29758400	     -0.28444650	      3.40983128	     -2.27323689	     -3.21027783	    -17.39717304	      9.05189513	      2.10576966	    -54.77296210	     -0.95596853	     -3.68817645	     18.62041779	      8.73382474	    -22.54399653	      6.73897441	     -2.63974699	     -6.66380099	    -10.78001413	     -1.10407202	     28.12507868	     89.95437384	      0.00000000	      0.00000000	      6.53330605	      8.78366539	      5.17615958	     39.43242286	     89.95437384	      0.00000000	      0.00000000
      0.41000000	     18.16166234	     -4.88098548	      6.56251059	     -0.55988654	      0.94959801	      1.00736120	    -10.07334071	      6.50501343	    -17.83299826	    -16.06747555	     -0.28043035	      3.83123556	     -2.05322145	     -3.19406599	    -16.27227493	      8.78615851	      2.26038956	    -56.11965072	     -0.97947268	     -2.79538066	     18.57673276	      8.90887856	    -22.86485110	      6.39532103	     -2.29959655	     -6.23235372	    -10.98845444	     -0.72197529	     29.16777991	     89.95437384	      0.00000000	      0.00000000	      6.36164429	      8.53586752	      5.46745973	     37.72926146	     89.95437384	      0.00000000	      0.00000000
      0.42000000	     18.37734844	     -4.54323416	      6.27870478	     -0.55034811	      0.95054410	      1.00924832	    -11.05268210	      6.28051156	    -17.88221112	    -15.98632804	     -0.27901406	      4.10589116	     -2.00156367	     -3.16492330	    -15.19516241	      8.46720295	      2.66038248	    -57.20916156	     -0.99848823	     -2.34638105	     18.51923422	      8.87217522	    -23.26302476	      5.87174888	     -1.98086956	     -5.57225220	    -11.06479716	     -0.54821000	     29.95100553	     89.95437384	      0.00000000	      0.00000000	      5.96133718	      8.47362951	      5.61664969	     36.45686412	     89.95437384	      0.00000000	      0.00000000
      0.43000000	     18.42542058	     -4.28860662	      6.03587139	     -0.54068309	      0.95131091	      1.01078145	    -12.05902718	      6.21082162	    -17.49370052	    -15.48058846	     -0.27018724	      4.62626219	     -1.64047133	     -3.14611418	    -14.02974526	      7.95235982	      2.51676431	    -57.97589708	     -1.01187029	     -1.15652215	     18.50737218	      8.99114364	    -23.37962593	      5.49547544	     -1.47021448	     -5.31255604	    -11.37611428	     -0.11464341	     31.19619212	     89.95437384	      0.00000000	      0.00000000	      6.06386213	      8.07271336	      6.11548442	     34.10363767	     89.95437384	      0.00000000	      0.00000000
      0.44000000	     18.47051075	     -4.00252159	      5.73356261	     -0.53119623	      0.95201228	      1.01248892	    -12.96876048	      6.04811525	    -17.33308605	    -15.15627930	     -0.26452698	      5.02201515	     -1.42160362	     -3.08221296	    -12.84992205	      7.50014972	      2.65113235	    -58.55218163	     -1.02192835	     -0.07017082	     18.40782315	      9.09310142	    -23.53939200	      5.02911529	     -1.01884922	     -4.85064983	    -11.61214830	      0.26024184	     32.18353703	     89.95437384	      0.00000000	      0.00000000	      5.87921771	      7.82906558	      6.63240130	     32.26534205	     89.95437384	      0.00000000	      0.00000000
      0.45000000	     18.44001739	     -3.68538360	      5.42772391	     -0.52180155	      0.95256266	      1.01409887	    -13.78154603	      5.81701195	    -17.19161909	    -14.84200661	     -0.25904188	      5.41860993	     -1.19698390	     -3.03171074	    -11.59777379	      6.98099278	      2.76183825	    -58.90395636	     -1.02806798	      1.15066418	     18.32011568	      9.09903815	    -23.61451185	      4.52986785	     -0.61976571	     -4.29589479	    -11.80121069	      0.49216493	     33.04831334	     89.95437384	      0.00000000	      0.00000000	      5.63253267	      7.63935716	      7.11098689	     30.49402920	     89.95437384	      0.00000000	      0.00000000
      0.46000000	     18.40732008	     -3.36311479	      4.97765561	     -0.51214889	      0.95306680	      1.01589101	    -14.58792245	      5.52836429	    -16.91199513	    -14.58200801	     -0.25450405	      5.84785251	     -0.87057048	     -2.99938946	    -10.46357595	      6.41654269	      2.97651309	    -58.94563279	     -1.02879537	      2.25450880	     18.21014590	      9.07489365	    -23.65117308	      3.95692521	     -0.07566891	     -3.82122835	    -12.01295070	      0.71328863	     33.92526491	     89.95437384	      0.00000000	      0.00000000	      5.36637992	      7.43825021	      7.70751441	     28.66637550	     89.95437384	      0.00000000	      0.00000000
      0.47000000	     18.35331498	     -3.09104410	      4.71793327	     -0.50268485	      0.95338933	      1.01765816	    -15.27877842	      5.30778937	    -17.04176665	    -14.44886589	     -0.25218028	      6.19349792	     -0.85411997	     -2.97878101	     -9.15725512	      6.13123478	      3.35481536	    -58.93163230	     -1.02855102	      2.83647065	     18.11319353	      8.96139062	    -23.67242278	      3.46730192	      0.20074985	     -3.16843821	    -12.09058257	      0.75913874	     34.60116427	     89.95437384	      0.00000000	      0.00000000	      4.73971232	      7.49895718	      7.90064706	     27.54700065	     89.95437384	      0.00000000	      0.00000000
      0.48000000	     18.34906128	     -2.64107822	      4.17286643	     -0.49315859	      0.95392742	      1.01923437	    -16.10425355	      4.84548768	    -16.27094693	    -14.21718130	     -0.24813662	      6.72696855	     -0.46998279	     -2.90695314	     -8.21602267	      5.28941469	      3.45505545	    -58.38093936	     -1.01893961	      3.89951304	     17.99600245	      8.92581970	    -23.75902734	      2.75508562	      0.84762100	     -2.81454432	    -12.36118593	      0.88291890	     35.71327939	     89.95437384	      0.00000000	      0.00000000	      4.71623126	      7.13653124	      9.24999507	     25.35358325	     89.95437384	      0.00000000	      0.00000000
      0.49000000	     18.21900207	     -2.30325458	      3.92063778	     -0.48361446	      0.95401711	      1.02064615	    -16.74129395	      4.56256898	    -15.94238754	    -14.02536648	     -0.24478882	      7.19509254	     -0.36731879	     -2.87246863	     -6.94909045	      4.75835713	      3.53144227	    -57.91401677	     -1.01079028	      4.55189186	     17.92172310	      8.82908631	    -23.66811015	      2.22374519	      1.17392358	     -2.33875521	    -12.54840057	      0.98121602	     36.56786335	     89.95437384	      0.00000000	      0.00000000	      4.27693505	      7.11084917	      9.62091333	     23.87203239	     89.95437384	      0.00000000	      0.00000000
